<svg xmlns="http://www.w3.org/2000/svg" xmlns:xlink="http://www.w3.org/1999/xlink" viewBox="0 0 30 30" fill="#5B5B5B">
  <path d="M10 5C9.448 5 9 5.448 9 6L9 7C9 7.552 8.552 8 8 8L3 8C2.448 8 2 8.448 2 9L2 24C2 24.552 2.448 25 3 25L27 25C27.552 25 28 24.552 28 24L28 9C28 8.448 27.552 8 27 8L22 8C21.448 8 21 7.552 21 7L21 6C21 5.448 20.552 5 20 5L10 5 z M 15 9C18.866 9 22 12.134 22 16C22 19.866 18.866 23 15 23C11.134 23 8 19.866 8 16C8 12.134 11.134 9 15 9 z M 25 10C25.552 10 26 10.448 26 11C26 11.552 25.552 12 25 12C24.448 12 24 11.552 24 11C24 10.448 24.448 10 25 10 z M 15 11 A 5 5 0 0 0 10 16 A 5 5 0 0 0 15 21 A 5 5 0 0 0 20 16 A 5 5 0 0 0 15 11 z" fill="#5B5B5B" />
</svg>